<svg width="192" height="192" viewBox="0 0 192 192" fill="none" xmlns="http://www.w3.org/2000/svg">
<rect width="192" height="192"/>
<path d="M133.452 140.711C126.749 148.212 115.202 161.078 110.331 167.472C108.652 169.666 106.49 171.444 104.013 172.668C101.536 173.892 98.8104 174.528 96.0476 174.528C93.2847 174.528 90.559 173.892 88.0819 172.668C85.6048 171.444 83.4429 169.666 81.764 167.472C76.8936 161.07 65.3463 148.212 58.6429 140.711C50.0621 131.121 53.985 116.005 66.3912 112.578C75.2874 110.118 83.4273 105.473 90.0702 99.065C91.6841 97.5347 93.8235 96.6816 96.0476 96.6816C98.2716 96.6816 100.411 97.5347 102.025 99.065C108.668 105.473 116.808 110.118 125.704 112.578C138.11 116.005 142.033 131.121 133.452 140.711Z" fill="#3C784C"/>
<path d="M3.74916 56.843C6.40574 27.7888 32.9716 18.3048 47.0869 17.4016C58.7404 16.6489 73.6527 18.4731 84.6421 28.0279C85.9782 29.1871 86.9307 30.7248 87.3734 32.4374C87.8162 34.15 87.7284 35.9566 87.1216 37.6182C84.5385 44.6419 83.4797 52.135 84.0156 59.5995C84.5516 67.0639 86.6698 74.3289 90.2298 80.9116C91.0761 82.4775 91.4221 84.2653 91.221 86.0339C91.0199 87.8025 90.2815 89.467 89.1052 90.803C79.4795 101.704 65.4527 108.779 49.8232 108.416C25.6571 107.841 0.933181 87.7567 3.74916 56.843Z" fill="#BD413D"/>
<path d="M188.347 56.843C185.69 27.7888 159.124 18.3048 145.009 17.4016C133.355 16.6489 118.443 18.4731 107.454 28.0279C106.113 29.1841 105.158 30.7218 104.715 32.4355C104.272 34.1492 104.362 35.9573 104.974 37.6182C107.559 44.6394 108.62 52.1302 108.087 59.593C107.554 67.0559 105.439 74.3199 101.884 80.9028C101.035 82.468 100.687 84.2563 100.889 86.0255C101.09 87.7947 101.83 89.4594 103.008 90.7941C112.634 101.695 126.661 108.77 142.29 108.407C166.439 107.841 191.198 87.7568 188.347 56.843Z" fill="#27548C"/>
</svg>
