<svg width="494" height="420" viewBox="0 0 494 420" fill="none" xmlns="http://www.w3.org/2000/svg">
<path d="M346.872 329.23C328.996 349.231 298.204 383.542 285.216 400.592C280.739 406.443 274.974 411.184 268.368 414.447C261.763 417.71 254.494 419.408 247.126 419.408C239.759 419.408 232.49 417.71 225.885 414.447C219.279 411.184 213.514 406.443 209.037 400.592C196.049 383.519 165.257 349.231 147.381 329.23C124.499 303.656 134.96 263.347 168.043 254.208C191.766 247.649 213.472 235.261 231.187 218.173C235.491 214.092 241.196 211.817 247.126 211.817C253.057 211.817 258.762 214.092 263.066 218.173C280.781 235.261 302.487 247.649 326.21 254.208C359.293 263.347 369.754 303.656 346.872 329.23Z" fill="#3C784C"/>
<path d="M0.997431 105.581C8.08165 28.1035 78.9239 2.81286 116.565 0.404229C147.641 -1.60297 187.407 3.26153 216.712 28.7411C220.275 31.8324 222.815 35.9329 223.996 40.4997C225.176 45.0666 224.942 49.8844 223.324 54.3151C216.436 73.0452 213.612 93.0267 215.041 112.932C216.47 132.837 222.119 152.21 231.612 169.764C233.869 173.94 234.792 178.707 234.256 183.424C233.719 188.14 231.75 192.579 228.613 196.141C202.945 225.21 165.54 244.078 123.861 243.11C59.4186 241.575 -6.51184 188.018 0.997431 105.581Z" fill="#BD413D"/>
<path d="M493.256 105.581C486.172 28.1035 415.33 2.81286 377.689 0.404229C346.613 -1.60297 306.847 3.26153 277.542 28.7411C273.968 31.8244 271.42 35.9248 270.239 40.4947C269.057 45.0645 269.298 49.886 270.93 54.3151C277.822 73.0385 280.651 93.0139 279.23 112.915C277.809 132.816 272.171 152.186 262.689 169.741C260.425 173.915 259.499 178.683 260.035 183.401C260.571 188.119 262.545 192.558 265.688 196.118C291.356 225.187 328.761 244.054 370.44 243.086C434.835 241.575 500.86 188.018 493.256 105.581Z" fill="#27548C"/>
</svg>
