<svg width="50%" viewBox="0 0 231 84" fill="none" xmlns="http://www.w3.org/2000/svg">
  <path
    d="M15.687 2.09166C19.2598 2.09166 22.0786 3.09138 24.1436 5.09083C26.2414 7.09027 27.2903 9.86 27.2903 13.4C27.2903 18.3822 25.3892 21.7419 21.587 23.4792C21.6853 23.6103 22.0295 24.1839 22.6195 25.2L27.6836 34.8858C28.0442 35.4758 28.1425 35.9839 27.9786 36.41C27.8148 36.8033 27.3723 37 26.6511 37H22.7178C21.4723 37 20.5545 36.8689 19.9645 36.6067C19.4073 36.3444 18.9484 35.8364 18.5878 35.0825L14.9495 27.5108C14.3922 26.3636 13.7859 25.5933 13.1303 25.2C12.5075 24.8067 11.4914 24.61 10.082 24.61H8.06614V34.9842C8.06614 35.7381 7.91864 36.2625 7.62364 36.5575C7.32864 36.8525 6.80419 37 6.0503 37H2.0678C1.31391 37 0.78947 36.8525 0.49447 36.5575C0.19947 36.2625 0.0519702 35.7381 0.0519702 34.9842V4.1075C0.0519702 3.35361 0.19947 2.82916 0.49447 2.53416C0.78947 2.23916 1.31391 2.09166 2.0678 2.09166H15.687ZM17.8995 16.3992C18.6206 15.6781 18.9811 14.6783 18.9811 13.4C18.9811 12.1217 18.6206 11.1383 17.8995 10.45C17.2111 9.72888 16.2114 9.36833 14.9003 9.36833H8.06614V17.4317H14.9003C16.2114 17.4317 17.2111 17.0875 17.8995 16.3992ZM30.606 21.6108C30.606 18.0708 31.6221 15.3667 33.6543 13.4983C35.6865 11.63 38.6038 10.6958 42.406 10.6958C46.3065 10.6958 49.2565 11.6792 51.256 13.6458C53.2554 15.5797 54.2552 18.0544 54.2552 21.07V24.0692C54.2552 25.7081 53.4029 26.5275 51.6985 26.5275H38.0302V27.7567C38.0302 30.3461 39.5052 31.6408 42.4552 31.6408C44.5857 31.6408 46.1427 30.9853 47.126 29.6742C47.5521 29.0842 47.9454 28.74 48.306 28.6417C48.6993 28.5433 49.2565 28.6744 49.9777 29.035L52.3868 30.2642C53.6652 30.9197 53.9274 31.8867 53.1735 33.165C51.2724 36.2133 47.6668 37.7375 42.3568 37.7375C38.3252 37.7375 35.3588 36.7542 33.4577 34.7875C31.5565 32.7881 30.606 30.1331 30.606 26.8225V21.6108ZM46.7818 20.3817C46.7818 17.8578 45.3232 16.5958 42.406 16.5958C39.4888 16.5958 38.0302 17.8578 38.0302 20.3817V21.1683H46.7818V20.3817ZM57.8428 15.8092C59.6456 12.4003 63.1528 10.6958 68.3645 10.6958C75.6739 10.6958 79.3286 14.1539 79.3286 21.07V33.5583C79.3286 34.4106 79.1975 35.0333 78.9353 35.4267C78.7058 35.7872 78.2306 36.115 77.5095 36.41C75.5428 37.295 72.4453 37.7375 68.217 37.7375C63.9558 37.7375 61.0058 37.0819 59.367 35.7708C57.7608 34.4597 56.9578 32.4111 56.9578 29.625C56.9578 26.6094 57.8264 24.5117 59.5636 23.3317C61.3336 22.1517 64.2836 21.5617 68.4136 21.5617C69.692 21.5617 70.8556 21.5944 71.9045 21.66V20.5783C71.9045 18.1528 70.6425 16.94 68.1186 16.94C66.3158 16.94 64.9556 17.5464 64.0378 18.7592C63.6117 19.3164 63.2511 19.6606 62.9561 19.7917C62.6939 19.89 62.2186 19.8081 61.5303 19.5458L58.8261 18.415C57.5806 17.8906 57.2528 17.0219 57.8428 15.8092ZM71.9045 27.3142C71.6095 27.3142 70.9703 27.2978 69.987 27.265C69.0036 27.2322 68.2661 27.2158 67.7745 27.2158C66.4633 27.2158 65.562 27.4289 65.0703 27.855C64.6114 28.2483 64.382 28.8219 64.382 29.5758C64.382 30.3625 64.6114 30.9689 65.0703 31.395C65.5292 31.7883 66.3978 31.985 67.6761 31.985C69.4133 31.985 70.7081 31.9194 71.5603 31.7883C71.7897 31.7228 71.9045 31.6081 71.9045 31.4442V27.3142ZM91.444 35.1808C91.444 35.8692 91.3129 36.3444 91.0506 36.6067C90.7884 36.8689 90.3131 37 89.6248 37H85.7898C85.1343 37 84.6754 36.8689 84.4131 36.6067C84.1509 36.3444 84.0198 35.8692 84.0198 35.1808V2.43583C84.0198 1.7475 84.1509 1.27222 84.4131 1.00999C84.6754 0.747773 85.1343 0.616662 85.7898 0.616662H89.6248C90.3131 0.616662 90.7884 0.747773 91.0506 1.00999C91.3129 1.27222 91.444 1.7475 91.444 2.43583V35.1808ZM122.764 2.09166C126.041 2.09166 128.598 2.91111 130.434 4.55C132.302 6.15611 133.236 8.43416 133.236 11.3842C133.236 14.6619 132.105 17.0875 129.844 18.6608V18.8575C132.99 20.2014 134.564 23.0203 134.564 27.3142C134.564 30.3625 133.482 32.7389 131.319 34.4433C129.188 36.1478 126.402 37 122.96 37H108.948C108.194 37 107.669 36.8525 107.374 36.5575C107.079 36.2625 106.932 35.7381 106.932 34.9842V4.1075C106.932 3.35361 107.079 2.82916 107.374 2.53416C107.669 2.23916 108.194 2.09166 108.948 2.09166H122.764ZM121.534 15.8583C123.927 15.8583 125.124 14.7439 125.124 12.515C125.124 10.2861 123.927 9.17166 121.534 9.17166H114.946V15.8583H121.534ZM126.156 26.38C126.156 23.9872 124.927 22.7908 122.469 22.7908H114.946V29.92H122.469C124.927 29.92 126.156 28.74 126.156 26.38ZM137.871 21.07C137.871 17.7922 138.871 15.2519 140.87 13.4492C142.87 11.6136 145.771 10.6958 149.573 10.6958C153.408 10.6958 156.325 11.6136 158.324 13.4492C160.324 15.2519 161.324 17.7922 161.324 21.07V27.4125C161.324 30.6903 160.324 33.2306 158.324 35.0333C156.325 36.8361 153.408 37.7375 149.573 37.7375C145.771 37.7375 142.87 36.8361 140.87 35.0333C138.871 33.1978 137.871 30.6575 137.871 27.4125V21.07ZM153.899 20.9717C153.899 18.5133 152.457 17.2842 149.573 17.2842C146.721 17.2842 145.295 18.5133 145.295 20.9717V27.4617C145.295 29.92 146.721 31.1492 149.573 31.1492C152.457 31.1492 153.899 29.92 153.899 27.4617V20.9717ZM165.251 15.8092C167.054 12.4003 170.561 10.6958 175.772 10.6958C183.082 10.6958 186.737 14.1539 186.737 21.07V33.5583C186.737 34.4106 186.606 35.0333 186.343 35.4267C186.114 35.7872 185.639 36.115 184.918 36.41C182.951 37.295 179.853 37.7375 175.625 37.7375C171.364 37.7375 168.414 37.0819 166.775 35.7708C165.169 34.4597 164.366 32.4111 164.366 29.625C164.366 26.6094 165.234 24.5117 166.972 23.3317C168.742 22.1517 171.692 21.5617 175.822 21.5617C177.1 21.5617 178.264 21.5944 179.312 21.66V20.5783C179.312 18.1528 178.051 16.94 175.527 16.94C173.724 16.94 172.364 17.5464 171.446 18.7592C171.02 19.3164 170.659 19.6606 170.364 19.7917C170.102 19.89 169.627 19.8081 168.938 19.5458L166.234 18.415C164.989 17.8906 164.661 17.0219 165.251 15.8092ZM179.312 27.3142C179.017 27.3142 178.378 27.2978 177.395 27.265C176.412 27.2322 175.674 27.2158 175.182 27.2158C173.871 27.2158 172.97 27.4289 172.478 27.855C172.019 28.2483 171.79 28.8219 171.79 29.5758C171.79 30.3625 172.019 30.9689 172.478 31.395C172.937 31.7883 173.806 31.985 175.084 31.985C176.821 31.985 178.116 31.9194 178.968 31.7883C179.198 31.7228 179.312 31.6081 179.312 31.4442V27.3142ZM202.638 10.6958H204.26C204.916 10.6958 205.375 10.8269 205.637 11.0892C205.932 11.3514 206.08 11.8267 206.08 12.515V15.5633C206.08 16.2189 205.932 16.6778 205.637 16.94C205.375 17.2022 204.916 17.3333 204.26 17.3333H202.441C201.13 17.3333 199.966 17.4481 198.95 17.6775C198.754 17.7103 198.655 17.825 198.655 18.0217V35.1808C198.655 35.8692 198.524 36.3444 198.262 36.6067C198 36.8689 197.541 37 196.885 37H193.05C192.362 37 191.887 36.8689 191.625 36.6067C191.362 36.3444 191.231 35.8692 191.231 35.1808V15.0717C191.231 14.2522 191.362 13.6622 191.625 13.3017C191.887 12.9083 192.411 12.5478 193.198 12.22C195.427 11.335 198.573 10.8269 202.638 10.6958ZM207.925 21.365C207.925 17.8906 208.827 15.2519 210.629 13.4492C212.432 11.6136 215.087 10.6958 218.594 10.6958C219.905 10.6958 221.413 10.7942 223.118 10.9908V2.43583C223.118 1.7475 223.249 1.27222 223.511 1.00999C223.773 0.747773 224.249 0.616662 224.937 0.616662H228.723C229.411 0.616662 229.886 0.747773 230.149 1.00999C230.411 1.27222 230.542 1.7475 230.542 2.43583V33.3617C230.542 34.1811 230.411 34.7547 230.149 35.0825C229.919 35.4103 229.395 35.7381 228.575 36.0658C225.887 37.1803 222.659 37.7375 218.889 37.7375C211.58 37.7375 207.925 34.345 207.925 27.56V21.365ZM223.118 17.6283C221.872 17.4317 220.774 17.3333 219.824 17.3333C216.841 17.3333 215.349 18.6772 215.349 21.365V27.5108C215.349 28.6581 215.71 29.5431 216.431 30.1658C217.152 30.7886 218.168 31.1 219.479 31.1C220.889 31.1 222.052 30.9853 222.97 30.7558C223.069 30.7231 223.118 30.6411 223.118 30.51V17.6283ZM68.5801 63.2842C69.334 63.2842 69.8585 63.4317 70.1535 63.7267C70.4485 64.0217 70.596 64.5461 70.596 65.3V72.0358C70.596 75.4775 69.3012 78.2964 66.7118 80.4925C64.1551 82.6558 60.5987 83.7375 56.0426 83.7375C51.4537 83.7375 47.881 82.5739 45.3243 80.2467C42.8004 77.8867 41.5385 74.6417 41.5385 70.5117V60.58C41.5385 56.45 42.8004 53.2214 45.3243 50.8942C47.881 48.5342 51.4537 47.3542 56.0426 47.3542C63.221 47.3542 67.8099 50.1075 69.8093 55.6142C70.301 56.8597 69.8912 57.7119 68.5801 58.1708L64.7943 59.4983C64.0732 59.7278 63.5324 59.7606 63.1718 59.5967C62.8112 59.4328 62.4999 58.9903 62.2376 58.2692C61.3199 55.8764 59.2549 54.68 56.0426 54.68C51.716 54.68 49.5526 56.6303 49.5526 60.5308V70.5608C49.5526 74.4614 51.716 76.4117 56.0426 76.4117C58.0749 76.4117 59.681 76.0183 60.861 75.2317C62.041 74.4122 62.631 73.3797 62.631 72.1342V70.3642H56.6818C55.9279 70.3642 55.4035 70.2167 55.1085 69.9217C54.8135 69.6267 54.666 69.1022 54.666 68.3483V65.3C54.666 64.5461 54.8135 64.0217 55.1085 63.7267C55.4035 63.4317 55.9279 63.2842 56.6818 63.2842H68.5801ZM74.5758 61.8092C76.3786 58.4003 79.8858 56.6958 85.0974 56.6958C92.4069 56.6958 96.0616 60.1539 96.0616 67.07V79.5583C96.0616 80.4106 95.9305 81.0333 95.6683 81.4267C95.4388 81.7872 94.9636 82.115 94.2425 82.41C92.2758 83.295 89.1783 83.7375 84.9499 83.7375C80.6888 83.7375 77.7388 83.0819 76.0999 81.7708C74.4938 80.4597 73.6908 78.4111 73.6908 75.625C73.6908 72.6094 74.5594 70.5117 76.2966 69.3317C78.0666 68.1517 81.0166 67.5617 85.1466 67.5617C86.425 67.5617 87.5886 67.5944 88.6375 67.66V66.5783C88.6375 64.1528 87.3755 62.94 84.8516 62.94C83.0488 62.94 81.6886 63.5464 80.7708 64.7592C80.3447 65.3164 79.9841 65.6606 79.6891 65.7917C79.4269 65.89 78.9516 65.8081 78.2633 65.5458L75.5591 64.415C74.3136 63.8906 73.9858 63.0219 74.5758 61.8092ZM88.6375 73.3142C88.3425 73.3142 87.7033 73.2978 86.72 73.265C85.7366 73.2322 84.9991 73.2158 84.5074 73.2158C83.1963 73.2158 82.2949 73.4289 81.8033 73.855C81.3444 74.2483 81.1149 74.8219 81.1149 75.5758C81.1149 76.3625 81.3444 76.9689 81.8033 77.395C82.2622 77.7883 83.1308 77.985 84.4091 77.985C86.1463 77.985 87.4411 77.9194 88.2933 77.7883C88.5227 77.7228 88.6375 77.6081 88.6375 77.4442V73.3142ZM118.109 58.0725C120.501 57.1547 123.255 56.6958 126.369 56.6958C133.121 56.6958 136.497 60.0883 136.497 66.8733V81.1808C136.497 81.8692 136.366 82.3444 136.104 82.6067C135.841 82.8689 135.366 83 134.678 83H130.892C130.204 83 129.728 82.8689 129.466 82.6067C129.204 82.3444 129.073 81.8692 129.073 81.1808V67.07C129.073 64.6444 127.827 63.4317 125.336 63.4317C124.222 63.4317 123.091 63.5956 121.944 63.9233C122.14 64.8083 122.239 65.8081 122.239 66.9225V81.1808C122.239 81.8692 122.108 82.3444 121.845 82.6067C121.583 82.8689 121.108 83 120.419 83H116.634C115.945 83 115.47 82.8689 115.208 82.6067C114.946 82.3444 114.814 81.8692 114.814 81.1808V67.07C114.814 64.6444 113.569 63.4317 111.078 63.4317C110.193 63.4317 109.226 63.5628 108.177 63.825C108.046 63.825 107.98 63.9233 107.98 64.12V81.1808C107.98 81.8692 107.849 82.3444 107.587 82.6067C107.325 82.8689 106.849 83 106.161 83H102.375C101.687 83 101.212 82.8689 100.949 82.6067C100.687 82.3444 100.556 81.8692 100.556 81.1808V61.3175C100.556 60.4981 100.687 59.9081 100.949 59.5475C101.212 59.1542 101.736 58.7936 102.523 58.4658C105.374 57.2858 108.57 56.6958 112.11 56.6958C114.536 56.6958 116.535 57.1547 118.109 58.0725ZM140.439 67.6108C140.439 64.0708 141.455 61.3667 143.487 59.4983C145.519 57.63 148.437 56.6958 152.239 56.6958C156.139 56.6958 159.089 57.6792 161.089 59.6458C163.088 61.5797 164.088 64.0544 164.088 67.07V70.0692C164.088 71.7081 163.236 72.5275 161.531 72.5275H147.863V73.7567C147.863 76.3461 149.338 77.6408 152.288 77.6408C154.418 77.6408 155.975 76.9853 156.959 75.6742C157.385 75.0842 157.778 74.74 158.139 74.6417C158.532 74.5433 159.089 74.6744 159.81 75.035L162.22 76.2642C163.498 76.9197 163.76 77.8867 163.006 79.165C161.105 82.2133 157.5 83.7375 152.19 83.7375C148.158 83.7375 145.192 82.7542 143.29 80.7875C141.389 78.7881 140.439 76.1331 140.439 72.8225V67.6108ZM156.615 66.3817C156.615 63.8578 155.156 62.5958 152.239 62.5958C149.322 62.5958 147.863 63.8578 147.863 66.3817V67.1683H156.615V66.3817ZM166.987 64.9067C166.987 62.4156 167.889 60.4325 169.691 58.9575C171.527 57.4497 174.149 56.6958 177.558 56.6958C182.966 56.6958 186.605 58.4494 188.473 61.9567C189.096 63.1367 188.768 64.0053 187.49 64.5625L184.589 65.7917C183.868 66.0539 183.376 66.1358 183.114 66.0375C182.852 65.9392 182.508 65.595 182.081 65.005C181.196 63.7594 179.771 63.1367 177.804 63.1367C175.378 63.1367 174.166 63.7267 174.166 64.9067C174.166 65.6278 174.51 66.1358 175.198 66.4308C175.886 66.7258 177.132 66.9553 178.935 67.1192C182.508 67.4797 185.13 68.2336 186.801 69.3808C188.506 70.4953 189.358 72.4292 189.358 75.1825C189.358 77.7719 188.391 79.8533 186.457 81.4267C184.523 82.9672 181.803 83.7375 178.296 83.7375C172.33 83.7375 168.561 81.7872 166.987 77.8867C166.528 76.6739 166.922 75.8544 168.167 75.4283L171.166 74.445C171.789 74.2156 172.264 74.1828 172.592 74.3467C172.953 74.4778 173.281 74.8547 173.576 75.4775C174.166 76.7231 175.657 77.3458 178.05 77.3458C180.869 77.3458 182.278 76.6739 182.278 75.33C182.278 74.5433 181.918 74.0025 181.196 73.7075C180.475 73.4125 179.099 73.1667 177.066 72.97C175.591 72.8389 174.313 72.6422 173.231 72.38C172.183 72.085 171.15 71.6589 170.134 71.1017C169.118 70.5444 168.331 69.7578 167.774 68.7417C167.249 67.6928 166.987 66.4144 166.987 64.9067Z"
    fill="black" />
</svg>