<svg xmlns="http://www.w3.org/2000/svg" viewBox="0 0 235 205"><style>
@keyframes a1_t { 0% { transform: translate(117.5px,102.5px) rotate(-180deg); animation-timing-function: cubic-bezier(.42,0,1,1); } 100% { transform: translate(117.5px,102.5px) rotate(0deg); } }
@keyframes a0_t { 0% { transform: scale(.5,.5) translate(-114.48px,-98.81px); } 47.826% { transform: scale(.5,.5) translate(-114.48px,-98.81px); animation-timing-function: cubic-bezier(.42,0,1,1); } 100% { transform: scale(1,1) translate(-114.48px,-98.81px); } }
@keyframes a2_fo { 0% { fill-opacity: 0; } 47.826% { fill-opacity: 0; animation-timing-function: cubic-bezier(0,0,.58,1); } 65.217% { fill-opacity: 1; } 100% { fill-opacity: 1; } }
@keyframes a2_do { 0% { stroke-dashoffset: 712.61px; } 65.217% { stroke-dashoffset: -712.61px; } 100% { stroke-dashoffset: -712.61px; } }
@keyframes a3_t { 0% { transform: translate(114.48px,99.7px) scale(0,0) translate(-114.49px,-99.7px); } 78.261% { transform: translate(114.48px,99.7px) scale(0,0) translate(-114.49px,-99.7px); animation-timing-function: cubic-bezier(.42,0,1,1); } 100% { transform: translate(114.48px,99.7px) scale(1,1) translate(-114.49px,-99.7px); } }
@keyframes a4_t { 0% { transform: translate(109.09px,61.49px) scale(0,0) translate(-109.09px,-61.49px); } 60.87% { transform: translate(109.09px,61.49px) scale(0,0) translate(-109.09px,-61.49px); animation-timing-function: cubic-bezier(.42,0,1,1); } 82.609% { transform: translate(109.09px,61.49px) scale(1,1) translate(-109.09px,-61.49px); } 100% { transform: translate(109.09px,61.49px) scale(1,1) translate(-109.09px,-61.49px); } }
@keyframes a5_t { 0% { transform: translate(119.86px,61.49px) scale(0,0) translate(-119.86px,-61.49px); } 69.565% { transform: translate(119.86px,61.49px) scale(0,0) translate(-119.86px,-61.49px); animation-timing-function: cubic-bezier(.42,0,1,1); } 91.304% { transform: translate(119.86px,61.49px) scale(1,1) translate(-119.86px,-61.49px); } 100% { transform: translate(119.86px,61.49px) scale(1,1) translate(-119.86px,-61.49px); } }
</style><g style="animation: 2.3s linear both a1_t;"><g transform="translate(117.5,102.5) rotate(-180) scale(.5,.5) translate(-114.48,-98.81)" style="animation: 2.3s linear both a0_t;"><path class="cls-1" d="M213.47 101.33c-11.5 12.74-27.54 20.47-44.67 21.52c.79 1.55 1.43 3.17 1.91 4.84c2.92 9.96 .44 20.72-6.54 28.4l-1.29 1.44c-7.24 8.1-19.35 21.65-24.31 28.17c-5.68 7.53-14.57 11.94-24 11.91h-0.15c-9.43 .03-18.33-4.39-24-11.92c-5-6.51-17.07-20.06-24.31-28.16l-1.3-1.45c-6.97-7.68-9.45-18.43-6.53-28.38c.48-1.67 1.12-3.3 1.91-4.85c-17.13-1.05-33.17-8.78-44.67-21.52c-11.47-12.84-16.87-29.73-15.23-47.54c3.65-39.69 39.71-52.42 58.26-53.6c2-0.13 4-0.19 5.9-0.19c12.25 0 29.79 2.54 43.71 14.66c3.18 2.78 5.4 6.5 6.32 10.62c.92-4.12 3.13-7.84 6.31-10.62c13.93-12.12 31.47-14.66 43.72-14.66c2 0 3.93 .06 5.9 .19c18.59 1.18 54.59 13.91 58.26 53.6c1.64 17.81-3.76 34.7-15.2 47.54Z" fill="#fff" stroke-dasharray="712.61 712.61" stroke="#fff" stroke-width="4" stroke-dashoffset="712.61" fill-opacity="0" style="animation: 2.3s linear both a2_fo, 2.3s linear both a2_do;"/><path class="cls-2" d="M156.72 149.42c-7.57 8.47-20.61 23-26.11 30.22c-3.84 5.02-9.81 7.97-16.13 7.97c-6.32 0-12.29-2.95-16.13-7.97c-5.5-7.23-18.54-21.75-26.11-30.22c-9.69-10.83-5.24-27.9 8.76-31.77c10.05-2.78 19.24-8.02 26.74-15.26c3.78-3.59 9.72-3.59 13.5 0c7.51 7.24 16.71 12.48 26.76 15.26c14 3.87 18.41 20.94 8.72 31.77Z" fill="#12a742" transform="translate(114.48,99.7) scale(0,0) translate(-114.49,-99.7)" style="animation: 2.3s linear both a3_t;"/><path class="cls-3" d="M10.25 54.7c3-32.81 33-43.51 48.94-44.53c13.16-0.85 30 1.21 42.41 12c3.09 2.68 4.21 6.99 2.8 10.83c-5.91 16.05-4.64 33.86 3.51 48.9c1.96 3.62 1.45 8.08-1.28 11.17c-10.86 12.3-26.7 20.3-44.35 19.89c-27.28-0.66-55.28-23.34-52.03-58.26Z" fill="#d62319" transform="translate(109.09,61.49) scale(0,0) translate(-109.09,-61.49)" style="animation: 2.3s linear both a4_t;"/><path class="cls-4" d="M218.71 54.7c-3-32.81-33-43.51-48.94-44.53c-13.16-0.85-30 1.21-42.41 12c-3.1 2.67-4.22 6.99-2.8 10.83c5.9 16.05 4.62 33.86-3.51 48.9c-1.96 3.62-1.46 8.08 1.27 11.17c10.87 12.3 26.71 20.3 44.36 19.89c27.32-0.66 55.24-23.34 52.03-58.26Z" fill="#0069bf" transform="translate(119.86,61.49) scale(0,0) translate(-119.86,-61.49)" style="animation: 2.3s linear both a5_t;"/></g></g></svg>