<svg xmlns="http://www.w3.org/2000/svg" viewBox="0 0 235 205"><defs><clipPath id="ClipPath-1"><path class="cls-2" d="M91.33 54.8c-7.57 8.47-20.61 23-26.11 30.22c-3.84 5.02-9.81 7.97-16.13 7.97c-6.32 0-12.29-2.95-16.13-7.97c-5.5-7.23-18.54-21.75-26.11-30.22c-9.69-10.83-5.24-27.9 8.76-31.77c10.05-2.78 19.24-8.02 26.74-15.26c3.79-3.59 9.72-3.59 13.5 0c7.51 7.24 16.71 12.49 26.76 15.26c14 3.87 18.41 20.94 8.72 31.77Z" fill="#12a742"/></clipPath><clipPath id="ClipPath-2"><path class="cls-3" d="M5.63 52.06c3-32.81 33-43.51 48.94-44.53c13.16-0.85 30 1.21 42.41 12c3.09 2.68 4.21 6.99 2.8 10.83c-5.91 16.05-4.64 33.86 3.51 48.9c1.96 3.62 1.45 8.08-1.28 11.17c-10.86 12.3-26.7 20.3-44.35 19.89c-27.28-0.66-55.28-23.34-52.03-58.26Z" fill="#d62319"/></clipPath><clipPath id="ClipPath-3"><path class="cls-4" d="M110.55 52.06c-3-32.81-33-43.51-48.94-44.53c-13.16-0.85-30 1.21-42.41 12c-3.1 2.67-4.22 6.99-2.8 10.83c5.9 16.05 4.62 33.86-3.51 48.9c-1.96 3.62-1.46 8.08 1.27 11.17c10.87 12.3 26.71 20.3 44.36 19.89c27.32-0.66 55.24-23.34 52.03-58.26Z" fill="#0069bf"/></clipPath></defs><style>
@keyframes a0_fo { 0% { fill-opacity: 0; } 73.333% { fill-opacity: 0; animation-timing-function: cubic-bezier(0,0,.58,1); } 100% { fill-opacity: 1; } }
@keyframes a0_do { 0% { stroke-dashoffset: 712.61px; } 100% { stroke-dashoffset: -712.61px; } }
@keyframes a1_t { 0% { transform: translate(49.03px,49.03px) scale(0,0); } 70% { transform: translate(49.03px,49.03px) scale(0,0); animation-timing-function: cubic-bezier(0,0,.58,1); } 100% { transform: translate(49.03px,49.03px) scale(1,1); } }
@keyframes a2_t { 0% { transform: translate(58.85px,58.85px) scale(0,0); } 70% { transform: translate(58.85px,58.85px) scale(0,0); animation-timing-function: cubic-bezier(0,0,.58,1); } 100% { transform: translate(58.85px,58.85px) scale(1,1); } }
@keyframes a3_t { 0% { transform: translate(58.85px,58.85px) scale(0,0); } 70% { transform: translate(58.85px,58.85px) scale(0,0); animation-timing-function: cubic-bezier(0,0,.58,1); } 100% { transform: translate(58.85px,58.85px) scale(1,1); } }
@keyframes a4_o { 0% { opacity: 0; } 80.281% { opacity: 0; animation-timing-function: cubic-bezier(0,0,.58,1); } 100% { opacity: 1; } }
@keyframes a5_t { 0% { transform: translate(27.29px,15.29px) scale(1,1); } 44.289% { transform: translate(27.29px,15.29px) scale(1,1); } 51.889% { transform: translate(27.29px,23.86px) scale(1,1); } 59.444% { transform: translate(27.29px,9.58px) scale(1,1); } 66.667% { transform: translate(27.29px,15.29px) scale(1,1); } 70.822% { transform: translate(27.29px,15.29px) scale(1,.3); } 74.622% { transform: translate(27.29px,15.29px) scale(1,1); } 78.4% { transform: translate(27.29px,15.29px) scale(1,.3); } 82.222% { transform: translate(27.29px,15.29px) scale(1,1); } 100% { transform: translate(27.29px,15.29px) scale(1,1); } }
@keyframes a6_t { 0% { transform: translate(132.29px,18.29px) scale(1,1); } 44.289% { transform: translate(132.29px,18.29px) scale(1,1); } 51.889% { transform: translate(132.29px,12.58px) scale(1,1); } 59.444% { transform: translate(132.29px,25.43px) scale(1,1); } 66.667% { transform: translate(132.29px,18.29px) scale(1,1); } 70.822% { transform: translate(132.29px,18.29px) scale(1,.3); } 74.622% { transform: translate(132.29px,18.29px) scale(1,1); } 78.4% { transform: translate(132.29px,18.29px) scale(1,.3); } 82.222% { transform: translate(132.29px,18.29px) scale(1,1); } 100% { transform: translate(132.29px,18.29px) scale(1,1); } }
@keyframes a7_t { 0% { transform: translate(120.26px,150.46px) rotate(210deg) scale(.6,.6) translate(-80.54px,-75.47px); } 58.333% { transform: translate(120.26px,150.46px) rotate(210deg) scale(.6,.6) translate(-80.54px,-75.47px); animation-timing-function: cubic-bezier(0,0,.58,1); } 66.667% { transform: translate(120.26px,150.46px) rotate(0deg) scale(.6,.6) translate(-80.54px,-75.47px); } 91.111% { transform: translate(120.26px,150.46px) rotate(0deg) scale(.6,.6) translate(-80.54px,-75.47px); animation-timing-function: cubic-bezier(0,0,.58,1); } 100% { transform: translate(120.26px,150.46px) rotate(210deg) scale(.6,.6) translate(-80.54px,-75.47px); animation-timing-function: cubic-bezier(0,0,.58,1); } }
@keyframes a7_o { 0% { opacity: 0; } 86.957% { opacity: 0; animation-timing-function: cubic-bezier(0,0,.58,1); } 100% { opacity: 1; } }
</style><g transform="translate(3.02,3.69)"><path class="cls-1" d="M213.47 101.33c-11.5 12.74-27.54 20.47-44.67 21.52c.79 1.55 1.43 3.17 1.91 4.84c2.92 9.96 .44 20.72-6.54 28.4l-1.29 1.44c-7.24 8.1-19.35 21.65-24.31 28.17c-5.68 7.53-14.57 11.94-24 11.91h-0.15c-9.43 .03-18.33-4.39-24-11.92c-5-6.51-17.07-20.06-24.31-28.16l-1.3-1.45c-6.97-7.68-9.45-18.43-6.53-28.38c.48-1.67 1.12-3.3 1.91-4.85c-17.13-1.05-33.17-8.78-44.67-21.52c-11.47-12.84-16.87-29.73-15.23-47.54c3.65-39.69 39.71-52.42 58.26-53.6c2-0.13 4-0.19 5.9-0.19c12.25 0 29.79 2.54 43.71 14.66c3.18 2.78 5.4 6.5 6.32 10.62c.92-4.12 3.13-7.84 6.31-10.62c13.93-12.12 31.47-14.66 43.72-14.66c2 0 3.93 .06 5.9 .19c18.59 1.18 54.59 13.91 58.26 53.6c1.64 17.81-3.76 34.7-15.2 47.54Z" fill="#fff" stroke-dasharray="712.61 712.61" stroke="#fff" stroke-width="4" stroke-dashoffset="712.61" fill-opacity="0" style="animation: 1.5s linear both a0_fo, 1.5s linear both a0_do;"/><g clip-path="url(#ClipPath-1)" transform="translate(65.39,94.62)"><ellipse rx="49.03" ry="49.03" fill="#3c784c" transform="translate(49.03,49.03) scale(0,0)" style="animation: 2s linear both a1_t;"/></g><g clip-path="url(#ClipPath-2)" transform="translate(4.62,2.64)"><ellipse rx="58.85" ry="58.85" fill="#bd413d" transform="translate(58.85,58.85) scale(0,0)" style="animation: 2s linear both a2_t;"/></g><g clip-path="url(#ClipPath-3)" transform="translate(108.16,2.64)"><ellipse rx="58.85" ry="58.85" fill="#27548c" transform="translate(58.85,58.85) scale(0,0)" style="animation: 2s linear both a3_t;"/></g></g><g opacity="0" transform="translate(117.59,42) scale(.7,.7) translate(-78.5,-19.13)" style="animation: 1.99s linear both a4_o;"><rect width="37" height="36.26" rx="18" fill="#fff"/><ellipse fill="#3f6449" rx="6.29" ry="6.29" transform="translate(27.29,15.29)" style="animation: 4.5s linear infinite both a5_t;"/><rect x="120" y="2" width="37" height="36.26" rx="18" fill="#fff"/><ellipse fill="#3f6449" rx="6.29" ry="6.29" transform="translate(132.29,18.29)" style="animation: 4.5s linear infinite both a6_t;"/></g><g fill="none" opacity="0" transform="translate(120.26,150.46) rotate(210) scale(.6,.6) translate(-80.54,-75.47)" style="animation: 4.5s linear infinite both a7_t, 2.88s linear both a7_o;"><g transform="translate(86.78,39.57)"><rect width="37" height="36.26" rx="8" fill="#fff" transform="translate(-112.55,-380.36) rotate(24.94) translate(276.29,291)"/><ellipse fill="#ad413e" rx="6.29" ry="6.29" transform="translate(-106.31,-381.42) rotate(24.94) translate(281.81,304.58)"/><ellipse fill="#ad413e" rx="6.29" ry="6.29" transform="translate(-100.73,-377.15) rotate(24.94) translate(274.94,319.35)"/><ellipse fill="#ad413e" rx="6.29" ry="6.29" transform="translate(-96.46,-382.73) rotate(24.94) translate(289.7,326.21)"/><ellipse fill="#ad413e" rx="6.29" ry="6.29" transform="translate(-102.05,-387) rotate(24.94) translate(296.57,311.45)"/></g><g transform="translate(25.14,61.7)"><rect width="37" height="36.26" rx="8" fill="#fff" transform="translate(-339.97,-166.47) rotate(-30.43) translate(199.37,331.87)"/><ellipse fill="#305077" rx="6.29" ry="6.29" transform="translate(-339.61,-158.78) rotate(-30.43) translate(213.68,335.05)"/><ellipse fill="#305077" rx="6.29" ry="6.29" transform="translate(-339.48,-146.7) rotate(-30.43) translate(235.96,340.84)"/></g></g></svg>